<?xml version="1.0" ?><svg data-name="Layer 3" id="Layer_3" viewBox="0 0 48 48" xmlns="http://www.w3.org/2000/svg"><defs><style>.cls-1{fill:#fff2f3;}.cls-2{fill:#b3b3b3;}.cls-11,.cls-3,.cls-4,.cls-8{fill:#4d4759;}.cls-3{opacity:0.5;}.cls-4{opacity:0.3;}.cls-5{fill:#666;}.cls-6{fill:#ff645f;}.cls-7{fill:#ff8163;}.cls-8{opacity:0.47;}.cls-9{fill:none;}.cls-10{fill:#e2e0db;}.cls-11{opacity:0.24;}.cls-12{fill:#40b3b3;}.cls-13{fill:#d7cbff;}.cls-14{fill:#6d6f6a;}.cls-15{fill:#ff684b;}</style></defs><rect class="cls-1" height="22.45001" width="3.23999" x="16.12518" y="14.29999"/><polygon class="cls-2" points="20.545 38.8 14.945 38.8 15.465 36.75 20.025 36.75 20.365 38.11 20.545 38.8"/><path class="cls-3" d="M20.36517,38.11h-.36733a1.73336,1.73336,0,0,1-1.69266-1.36h0l-.3069-1.37827a1.73335,1.73335,0,0,0-1.338-1.32009L16.12518,33.94V30.32l3.24-.64v7.07h.66Z"/><rect class="cls-2" height="1.71901" width="3.24538" x="16.12461" y="17.08186"/><path class="cls-4" d="M16.126,22.58v4.71l3.25-3.17V14.3l-.24-1.47c-.03.41-.09.91-.17,1.47A20.43833,20.43833,0,0,1,16.126,22.58Z"/><polygon class="cls-5" points="18.964 40.35 16.53 40.35 16.125 38.796 19.37 38.796 18.964 40.35"/><path class="cls-2" d="M19.37,14.30344H16.12461l.5437-3.42331a1.08958,1.08958,0,0,1,1.07609-.91868h.00581a1.08958,1.08958,0,0,1,1.07609.91868Z"/><rect class="cls-1" height="22.45001" width="3.25" x="28.62" y="14.29999"/><polygon class="cls-2" points="27.443 38.796 33.046 38.796 32.525 36.753 27.963 36.753 27.443 38.796"/><path class="cls-3" d="M27.61731,38.11h.36733a1.73337,1.73337,0,0,0,1.69267-1.36h0l.3069-1.37827a1.73334,1.73334,0,0,1,1.33795-1.32009L31.8573,33.94V30.32l-3.24-.64v7.07h-.66Z"/><rect class="cls-2" height="1.71901" transform="translate(60.48858 35.88273) rotate(180)" width="3.24538" x="28.6216" y="17.08186"/><polygon class="cls-5" points="29.027 40.35 31.461 40.35 31.867 38.796 28.622 38.796 29.027 40.35"/><path class="cls-2" d="M31.87,14.3H28.62l.24-1.47v-.02l.31-1.93a1.085,1.085,0,0,1,1.07-.92h.00995a1.085,1.085,0,0,1,1.07.92Z"/><path class="cls-4" d="M31.87,22.58v4.71l-3.25-3.17V14.3l.24-1.47c.03.41.09.91.17,1.47A20.43833,20.43833,0,0,0,31.87,22.58Z"/><path class="cls-6" d="M28.62,10.32v17.6H19.37V10.32a13.84156,13.84156,0,0,1,.16-2.17,9.89927,9.89927,0,0,1,.23-1.09c.77-2.71,2.5-3.55,3.76-4.72a.6882.6882,0,0,1,.96,0c1.26,1.17,2.98,2.01,3.75,4.71a10.09706,10.09706,0,0,1,.23,1.1A13.84928,13.84928,0,0,1,28.62,10.32Z"/><path class="cls-7" d="M28.46,8.15a15.77619,15.77619,0,0,0-8.93,0,9.89927,9.89927,0,0,1,.23-1.09,16.54351,16.54351,0,0,1,8.47-.01A10.09706,10.09706,0,0,1,28.46,8.15Z"/><path class="cls-8" d="M28.62,12.47V22.55a11.50468,11.50468,0,0,1-4.62.93,11.38735,11.38735,0,0,1-4.63-.94V12.48A11.38818,11.38818,0,0,1,24,11.54,11.50553,11.50553,0,0,1,28.62,12.47Z"/><path class="cls-9" d="M19.51078,8.3045a15.32661,15.32661,0,0,1,8.97844,0"/><path class="cls-10" d="M21.09,17.69V33.36l-5.88-.49-4.9-.4C9.27,26,19.72,25.53,21.09,17.69Z"/><path class="cls-10" d="M26.91073,17.68891c1.36975,7.83717,11.82362,8.31453,10.779,14.77933l-10.779.895Z"/><path class="cls-5" d="M10.29619,30.84615h10.7763v2.51734l-10.76923-.898A4.97859,4.97859,0,0,1,10.29619,30.84615Z"/><path class="cls-11" d="M21.09,23.18V33.36l-5.88-.49A27.17679,27.17679,0,0,0,21.09,23.18Z"/><path class="cls-5" d="M37.6895,30.84615l.00707.00707a4.948,4.948,0,0,1-.01415,1.61223l-10.78338.898V30.84615Z"/><path class="cls-11" d="M26.91,23.18V33.36l5.88-.49A27.17679,27.17679,0,0,1,26.91,23.18Z"/><path class="cls-2" d="M26.91073,16.5682H21.08927V13.159a4.964,4.964,0,0,1,1.29366-3.45252,1.97229,1.97229,0,0,1,3.23414,0A4.96406,4.96406,0,0,1,26.91073,13.159Z"/><rect class="cls-1" height="16.78998" width="5.81995" x="21.09003" y="16.57001"/><path class="cls-3" d="M26.91,31.78v1.58H21.09V31.78A6.81773,6.81773,0,0,0,24,29.27,6.81773,6.81773,0,0,0,26.91,31.78Z"/><path class="cls-5" d="M24.5,27.91537a20.63076,20.63076,0,0,1,.30671,3.87775A22.47251,22.47251,0,0,1,24.5,35.67088a.50835.50835,0,0,1-1,0,22.47251,22.47251,0,0,1-.30671-3.87776A20.63076,20.63076,0,0,1,23.5,27.91537a.50912.50912,0,0,1,1,0Z"/><path class="cls-12" d="M25.54066,15.1323H22.45934l.11186-.761a1.16083,1.16083,0,0,1,.78208-.95614,2.204,2.204,0,0,1,1.29344,0,1.16083,1.16083,0,0,1,.78208.95614Z"/><path class="cls-13" d="M22.45933,29.87661h0a0,0,0,0,1,0,0V36.0405a0,0,0,0,1,0,0H18.71555a0,0,0,0,1,0,0V33.62039A3.74378,3.74378,0,0,1,22.45933,29.87661Z"/><polygon class="cls-14" points="21.521 37.465 19.654 37.465 19.245 36.04 21.93 36.04 21.521 37.465"/><path class="cls-13" d="M25.54066,29.87661h3.74379a0,0,0,0,1,0,0V36.0405a0,0,0,0,1,0,0h0a3.74378,3.74378,0,0,1-3.74378-3.74378V29.87661A0,0,0,0,1,25.54066,29.87661Z" transform="translate(54.82511 65.91711) rotate(-180)"/><polygon class="cls-14" points="26.479 37.465 28.346 37.465 28.755 36.04 26.07 36.04 26.479 37.465"/><path class="cls-15" d="M19.02746,41.65693a5.03643,5.03643,0,0,1-1.27534,4.19859,5.03646,5.03646,0,0,1-1.27533-4.19859Z"/><path class="cls-15" d="M31.48943,41.65693a5.03646,5.03646,0,0,1-1.27533,4.19859,5.03643,5.03643,0,0,1-1.27534-4.19859Z"/></svg>